<svg width="96" height="23" viewBox="0 0 96 23" fill="none" xmlns="http://www.w3.org/2000/svg">
<path d="M59.1017 15.5641C59.2321 15.5641 59.3191 15.6461 59.3191 15.81C58.5796 19.5783 55.4049 22.3633 51.0997 22.3633C45.8374 22.3633 42.489 18.9639 42.489 14.3763C42.489 9.99387 46.2291 6.43022 51.0564 6.43022C55.1879 6.43022 58.3627 9.05161 59.2324 12.6561C59.2758 12.7788 59.1891 12.9019 59.0584 12.9019H55.9707C55.8837 12.9019 55.7967 12.8611 55.7533 12.7792C55.0139 10.8542 53.231 9.58446 51.0131 9.58446C48.0994 9.58446 46.0555 11.7141 46.0555 14.4175C46.0555 17.0797 48.1431 19.2505 51.0568 19.2505C53.405 19.2505 55.2316 17.7761 55.884 15.728C55.9274 15.6053 55.971 15.5641 56.0581 15.5641H59.1017ZM61.1893 22.1586C61.1023 22.1586 61.0153 22.0766 61.0153 21.9947V0.204707C61.0153 0.0819504 61.1023 0 61.1893 0H64.3204C64.4074 0 64.4944 0.0819504 64.4944 0.204707V7.65913C65.4945 7.08582 67.1907 6.55331 69.452 6.55331C73.1922 6.55331 76.6276 8.19164 76.6276 12.8608V21.9947C76.6276 22.0766 76.5406 22.1586 76.4102 22.1586H73.3225C73.1922 22.1586 73.1051 22.0766 73.1051 21.9947V13.1066C73.1051 10.7311 71.5829 9.66607 69.5824 9.66607H62.9719V10.6899C64.233 10.6899 64.494 11.4272 64.494 12.2055V21.9947C64.494 22.0766 64.407 22.1586 64.32 22.1586H61.1893ZM40.4884 0C40.5754 0 40.6624 0.0819504 40.6624 0.204707V21.9947C40.6624 22.0766 40.5754 22.1586 40.4884 22.1586H37.3574C37.2703 22.1586 37.1833 22.0766 37.1833 21.9947V0.204707C37.1833 0.0819504 37.2703 0 37.3574 0H40.4884ZM95.6763 6.63526C95.8067 6.63526 95.8937 6.71721 95.8937 6.79916V21.9947C95.8937 22.0766 95.8067 22.1586 95.6763 22.1586H92.893C92.7626 22.1586 92.6756 22.0766 92.6756 21.9947V20.4383C91.2841 21.708 89.2835 22.3633 87.0219 22.3633C82.0206 22.3633 78.5415 18.8 78.5415 14.4172C78.5415 10.0343 82.325 6.43022 87.0652 6.43022C89.2832 6.43022 91.0664 7.00353 92.6753 8.39635V6.79882C92.6753 6.71687 92.7623 6.63493 92.8926 6.63493H95.6763V6.63526ZM92.4146 14.4175C92.4146 11.5094 90.24 9.58446 87.2393 9.58446C84.2819 9.58446 82.1076 11.7141 82.1076 14.4175C82.1076 17.0797 84.2822 19.2505 87.2393 19.2505C90.24 19.2505 92.4146 17.2844 92.4146 14.4175ZM33.9649 6.71721C34.0519 6.71721 34.1389 6.79916 34.1389 6.88111V21.9539C34.1389 22.0766 34.0519 22.1586 33.9649 22.1586H30.8339C30.7469 22.1586 30.6598 22.0766 30.6598 21.9539V21.2575C29.6597 21.8308 27.9635 22.3633 25.7022 22.3633C22.3972 22.3633 18.9614 20.725 18.9614 16.0558V6.88111C18.9614 6.79916 19.0484 6.71721 19.1787 6.71721H22.2665C22.3968 6.71721 22.4838 6.79916 22.4838 6.88111V15.81C22.4838 18.1855 23.5709 19.2505 25.5715 19.2505H32.182V18.2267C30.9209 18.2267 30.6598 17.4894 30.6598 16.7111V6.88111C30.6598 6.79916 30.7469 6.71721 30.8339 6.71721H33.9649ZM16.6127 15.5641C16.7431 15.5641 16.8301 15.6461 16.8301 15.81C16.0907 19.5783 12.9159 22.3633 8.61074 22.3633C3.34876 22.3633 0 18.9639 0 14.3763C0 9.99387 3.74014 6.43022 8.56741 6.43022C12.6989 6.43022 15.8737 9.05161 16.7434 12.6561C16.7868 12.7788 16.7001 12.9019 16.5694 12.9019H13.4817C13.3947 12.9019 13.3077 12.8611 13.2643 12.7792C12.5249 10.8542 10.742 9.58446 8.52408 9.58446C5.61039 9.58446 3.56647 11.7141 3.56647 14.4175C3.56647 17.0797 5.65407 19.2505 8.56777 19.2505C10.9161 19.2505 12.7426 17.7761 13.395 15.728C13.4384 15.6053 13.482 15.5641 13.5691 15.5641H16.6127Z" fill="#242D32"/>
</svg>
