<svg width="323" height="80" viewBox="0 0 323 80" fill="none" xmlns="http://www.w3.org/2000/svg">
<path fill-rule="evenodd" clip-rule="evenodd" d="M66.3423 8.78054L66.3423 29.2685L75.1228 29.2685L75.1228 5.36588C75.1228 2.40239 72.7204 -1.05012e-07 69.7569 -2.3455e-07L45.8543 -1.27937e-06L45.8543 8.78054L66.3423 8.78054Z" fill="#EC3327"/>
<path fill-rule="evenodd" clip-rule="evenodd" d="M20.4879 8.78054L20.4879 29.2685H29.2685L29.2685 5.36589C29.2685 2.40239 26.8661 1.90735e-06 23.9026 1.90735e-06H3.8381e-07L0 8.78054L20.4879 8.78054ZM20.4879 59.5123L20.4879 80.0002L29.2685 80.0002L29.2685 56.0977C29.2685 53.1342 26.8661 50.7318 23.9026 50.7318H3.8381e-07L0 59.5123L20.4879 59.5123ZM66.3423 80.0002V59.5123L45.8544 59.5123V50.7318H69.757C72.7205 50.7318 75.1228 53.1342 75.1228 56.0977V80.0002L66.3423 80.0002Z" fill="#242D32"/>
<path fill-rule="evenodd" clip-rule="evenodd" d="M115.61 19.0234C113.455 19.0234 111.708 20.7706 111.708 22.9259V62.9261H119.513V50.2431H151.708C153.864 50.2431 155.611 48.4959 155.611 46.3407V22.9259C155.611 20.7706 153.864 19.0234 151.708 19.0234H115.61ZM147.806 42.4382H119.513V26.8284H147.806V42.4382ZM249.119 52.8439L247.261 50.2431H230.733V62.9261H222.928V22.9259C222.928 20.7706 224.676 19.0234 226.831 19.0234H262.929C265.084 19.0234 266.831 20.7706 266.831 22.9259V46.3407C266.831 48.4959 265.084 50.2431 262.929 50.2431H256.93L262.068 57.5448L262.202 57.7324L262.201 57.7333L265.855 62.9269H256.099L249.119 52.8439ZM282.441 19.0234C280.286 19.0234 278.539 20.7706 278.539 22.9259V58.0481C278.539 60.2033 280.286 61.9505 282.441 61.9505H297.075V68.7822H304.88V61.9505H318.539C320.694 61.9505 322.441 60.2033 322.441 58.0481V22.9259C322.441 20.7706 320.694 19.0234 318.539 19.0234H282.441ZM304.88 54.1456H314.636V26.8284H286.344V54.1456H297.075V48.2943H304.88V54.1456ZM171.221 19.0234C169.065 19.0234 167.318 20.7706 167.318 22.9259V62.9261H175.123V50.2431H203.417V62.9261H211.221V22.9259C211.221 20.7706 209.474 19.0234 207.319 19.0234H207.318H171.221H171.221ZM203.416 42.4382H175.124V26.8284H203.416V42.4382ZM230.733 42.4382H259.026V26.8284H230.733V42.4382Z" fill="#242D32"/>
</svg>
