<svg width="261" height="44" viewBox="0 0 261 44" fill="none" xmlns="http://www.w3.org/2000/svg">
<path d="M8.59471 27.4016C9.03546 29.6195 10.5046 30.5496 13.443 30.5496C16.0875 30.5496 17.5567 29.8341 17.5567 28.5463C17.5567 27.9024 17.1894 27.3301 16.6017 27.0439C16.0141 26.6862 15.4264 26.5431 13.0023 26.0423C9.6966 25.3984 8.00704 24.9691 6.53786 24.5398C4.481 23.7528 3.01182 22.7512 2.20377 21.4634C1.54264 20.3187 1.10189 18.8878 1.10189 17.4569C1.10189 12.3772 5.50943 9.30081 12.7819 9.30081C16.8956 9.30081 19.9809 10.1593 22.0377 12.0195C23.5069 13.2358 24.168 14.452 24.9026 16.8846L16.5283 17.7431C16.3079 16.026 15.206 15.239 12.8553 15.239C10.5781 15.239 9.18238 15.9545 9.18238 17.0276C9.18238 18.1724 10.0639 18.6016 14.398 19.5317C18.6586 20.3902 19.9809 20.8195 21.5235 21.535C24.3884 22.8943 25.7107 24.9691 25.7107 28.0455C25.7107 30.2634 24.9026 32.3382 23.5069 33.6976C21.45 35.7008 17.8506 36.774 13.2226 36.774C7.7132 36.774 3.89333 35.3431 1.76302 32.5528C0.881509 31.3366 0.440754 30.335 0 28.3317L8.59471 27.4016Z" fill="#242D32"/>
<path d="M46.9404 18.3155C46.9404 16.3122 45.6916 15.3821 42.8267 15.3821C40.0353 15.3821 38.5661 16.2407 37.905 18.3155L29.6041 17.0277C30.4856 14.5236 31.4406 13.1642 33.2771 11.8764C35.6278 10.2309 38.8599 9.44391 43.0471 9.44391C46.2793 9.44391 49.3646 10.0163 51.1276 10.9463C53.9191 12.4488 55.1679 14.7382 55.1679 18.6016V30.0488C55.1679 32.6244 55.2413 34.1268 55.4617 36.0586H46.9404V34.1268C44.5163 35.9155 42.0921 36.7025 38.4927 36.7025C35.187 36.7025 32.6894 35.9155 30.9998 34.3415C29.4572 32.9106 28.5757 30.9073 28.5757 28.5464C28.5757 25.8992 29.6776 23.7529 31.7344 22.3935C33.9382 20.8911 36.8766 19.961 40.7699 19.6033C42.4594 19.4602 43.7817 19.3886 46.9404 19.3171V18.3155ZM46.9404 24.6829C43.0471 24.7545 41.2106 24.9691 39.4476 25.5415C37.905 26.0423 36.95 27.1155 36.95 28.3317C36.95 29.8342 38.2723 30.7642 40.5495 30.7642C42.3125 30.7642 44.2959 30.1203 45.4713 29.1187C46.4997 28.2602 47.0139 27.1155 47.0139 25.8277V24.6829H46.9404Z" fill="#242D32"/>
<path d="M59.9426 35.987C60.2365 33.9837 60.3099 32.1951 60.3099 29.6195V16.5984C60.3099 13.665 60.2365 11.8764 59.9426 10.2309H68.6108V12.0195C68.6108 12.3057 68.5373 12.8781 68.5373 13.2358C71.2553 10.6602 73.8998 9.65854 77.4993 9.65854C80.5112 9.65854 82.8619 10.4455 84.4779 12.0195C86.241 13.7366 86.9756 15.8114 86.9756 19.174V29.8341C86.9756 32.2667 87.1225 34.413 87.3429 36.2016H78.3074C78.6012 34.1984 78.6747 32.4098 78.6747 29.8341V20.9626C78.6747 19.2455 78.5278 18.5301 78.0136 17.8146C77.4259 17.0276 76.4709 16.5984 75.1487 16.5984C72.7245 16.5984 70.5207 18.1008 68.6843 21.0341V29.6195C68.6843 32.052 68.7577 33.8407 69.0515 35.987H59.9426Z" fill="#242D32"/>
<path d="M97.7005 35.2715C99.2432 37.2032 101.447 38.1333 104.312 38.1333C106.736 38.1333 108.572 37.4894 109.601 36.2732C110.482 35.2715 110.923 33.9837 110.997 31.7659C108.793 33.6976 106.442 34.5561 103.063 34.5561C95.4968 34.5561 90.7219 29.6911 90.7219 22.0358C90.7219 14.5236 95.6437 9.51544 103.063 9.51544C106.295 9.51544 108.646 10.2309 110.997 11.948C110.997 11.5902 110.997 11.4471 110.997 11.0179V10.1593H119.518C119.224 12.0911 119.151 13.5219 119.151 16.026V30.9073C119.151 35.987 117.681 39.4211 114.596 41.4959C112.245 43.1415 108.572 44 104.238 44C98.2882 44 94.3949 42.5691 91.3831 39.278L97.7005 35.2715ZM104.753 28.4748C108.352 28.4748 110.923 25.8276 110.923 22.0358C110.923 18.2439 108.352 15.5252 104.826 15.5252C101.373 15.5252 99.0963 18.1008 99.0963 22.0358C99.0228 25.9707 101.3 28.4748 104.753 28.4748Z" fill="#242D32"/>
<path d="M127.084 16.6699C125.027 16.6699 123.705 16.7415 122.236 16.9561V9.80163C123.485 9.94472 125.468 10.0878 127.084 10.0878H128.259V8.08455C128.259 2.57561 131.492 0 138.617 0C141.041 0 142.804 0.286179 145.229 0.858537L143.906 7.08293C142.584 6.36748 141.262 6.00976 139.572 6.00976C137.442 6.00976 136.634 6.86829 136.634 9.08618V10.1593H137.883C139.719 10.1593 142.07 10.0163 143.686 9.87317V17.0276C141.849 16.813 140.454 16.7415 137.956 16.7415H136.634V29.6911C136.634 32.6244 136.707 33.9837 137.001 36.0585H127.966C128.259 33.9837 128.333 32.4098 128.333 29.6911V16.6699H127.084Z" fill="#242D32"/>
<path d="M167.413 17.8146C165.43 17.2423 164.328 17.0276 163.006 17.0276C160.802 17.0276 159.112 17.8146 157.863 19.3171C157.055 20.3187 156.762 21.2488 156.541 23.1089V29.6911C156.541 32.4098 156.615 33.9837 156.909 36.0585H147.873C148.167 33.9122 148.24 32.4098 148.24 29.6911V16.5984C148.24 13.5219 148.167 12.0195 147.873 10.2309H156.468V13.5935C158.598 10.8748 161.243 9.73007 165.136 9.73007C166.532 9.73007 167.413 9.80162 169.47 10.2309L167.413 17.8146Z" fill="#242D32"/>
<path d="M171.013 23.0374C171.013 14.5951 176.596 9.15771 185.337 9.15771C194.152 9.15771 199.662 14.5236 199.662 22.9658C199.662 31.4081 193.932 36.9886 185.264 36.9886C176.522 36.9886 171.013 31.5512 171.013 23.0374ZM179.314 23.0374C179.314 27.7593 181.591 30.5496 185.337 30.5496C189.084 30.5496 191.287 27.7593 191.287 23.1089C191.287 18.387 189.084 15.5967 185.337 15.5967C181.591 15.5252 179.314 18.3154 179.314 23.0374Z" fill="#242D32"/>
<path d="M212.297 10.1593C212.003 11.8764 211.929 13.5935 211.929 16.5268V29.548C211.929 31.8374 212.076 34.1268 212.297 35.9154H203.188C203.482 33.8406 203.555 32.1951 203.555 29.548V16.5984C203.555 13.8081 203.482 12.0911 203.188 10.2309H212.297V10.1593ZM212.223 0.786987V7.15447H203.408V0.786987H212.223Z" fill="#242D32"/>
<path d="M237.273 34.6992C237.273 34.413 237.273 34.1268 237.346 33.7691C234.408 36.0585 232.204 36.8455 228.531 36.8455C220.598 36.8455 215.823 31.6943 215.823 23.1089C215.823 18.6732 217.145 15.1675 219.569 12.735C221.773 10.5886 224.858 9.4439 228.384 9.4439C231.91 9.4439 234.408 10.3024 237.273 12.5919C237.199 11.948 237.199 11.5902 237.199 10.9463V7.44065C237.199 4.50731 237.126 2.64715 236.832 0.786987H245.721C245.427 2.57561 245.353 4.57886 245.353 7.44065V29.3333C245.353 32.1951 245.427 33.9122 245.721 35.987H237.273V34.6992ZM224.271 23.1089C224.271 25.5415 224.932 27.4732 226.254 28.6894C227.282 29.6911 228.898 30.335 230.441 30.335C234.334 30.335 237.126 27.187 237.126 23.0374C237.126 18.9593 234.334 15.9545 230.368 15.9545C226.621 15.8829 224.271 18.6732 224.271 23.1089Z" fill="#242D32"/>
<path d="M252.332 25.1122C252.405 24.1106 252.405 23.8959 252.405 22.8943C252.405 22.3935 252.405 22.3935 252.259 19.8894L251.377 6.43903C251.23 4.29269 251.01 2.00326 250.863 0.715454H261C260.78 2.36098 260.633 4.1496 260.486 6.43903L259.604 19.8894C259.531 21.6065 259.458 22.5366 259.458 23.252C259.458 23.7529 259.457 24.1106 259.531 25.1122H252.332ZM251.597 35.987V28.0455H260.339V36.0585H251.597V35.987Z" fill="#242D32"/>
</svg>
